<svg width="100" height="100" viewBox="0 0 100 100" fill="none" xmlns="http://www.w3.org/2000/svg">
  <!-- Outer Circle -->
  <circle cx="50" cy="50" r="48" fill="#065f46" stroke="#10b981" stroke-width="2"/>
  
  <!-- Cross Symbol -->
  <g transform="translate(50,50)">
    <!-- Vertical bar of cross -->
    <rect x="-2" y="-20" width="4" height="40" fill="#10b981" rx="2"/>
    <!-- Horizontal bar of cross -->
    <rect x="-12" y="-2" width="24" height="4" fill="#10b981" rx="2"/>
  </g>
  
  <!-- Decorative Elements - Rays -->
  <g transform="translate(50,50)">
    <g transform="rotate(0)">
      <rect x="-0.5" y="-32" width="1" height="6" fill="#047857" rx="0.5"/>
    </g>
    <g transform="rotate(45)">
      <rect x="-0.5" y="-32" width="1" height="6" fill="#047857" rx="0.5"/>
    </g>
    <g transform="rotate(90)">
      <rect x="-0.5" y="-32" width="1" height="6" fill="#047857" rx="0.5"/>
    </g>
    <g transform="rotate(135)">
      <rect x="-0.5" y="-32" width="1" height="6" fill="#047857" rx="0.5"/>
    </g>
    <g transform="rotate(180)">
      <rect x="-0.5" y="-32" width="1" height="6" fill="#047857" rx="0.5"/>
    </g>
    <g transform="rotate(225)">
      <rect x="-0.5" y="-32" width="1" height="6" fill="#047857" rx="0.5"/>
    </g>
    <g transform="rotate(270)">
      <rect x="-0.5" y="-32" width="1" height="6" fill="#047857" rx="0.5"/>
    </g>
    <g transform="rotate(315)">
      <rect x="-0.5" y="-32" width="1" height="6" fill="#047857" rx="0.5"/>
    </g>
  </g>
</svg>